<svg width="73" height="71" viewBox="0 0 73 71" fill="none" xmlns="http://www.w3.org/2000/svg">
<path d="M59.9062 62.1094C56.7812 64.7969 53.2812 66.8594 49.4062 68.2969C45.5312 69.7344 41.5156 70.4531 37.3594 70.4531C34.1719 70.4531 31.0938 70.0312 28.125 69.1875C25.1875 68.375 22.4219 67.2188 19.8281 65.7188C17.2656 64.1875 14.9219 62.3594 12.7969 60.2344C10.6719 58.1094 8.84375 55.7656 7.3125 53.2031C5.8125 50.6094 4.64062 47.8438 3.79688 44.9062C2.98438 41.9375 2.57812 38.8594 2.57812 35.6719C2.57812 32.4844 2.98438 29.4062 3.79688 26.4375C4.64062 23.4688 5.8125 20.7031 7.3125 18.1406C8.84375 15.5469 10.6719 13.1875 12.7969 11.0625C14.9219 8.9375 17.2656 7.125 19.8281 5.625C22.4219 4.09375 25.1875 2.92187 28.125 2.10938C31.0938 1.26562 34.1719 0.84375 37.3594 0.84375C41.5156 0.84375 45.5312 1.5625 49.4062 3C53.2812 4.40625 56.7812 6.46875 59.9062 9.1875L52.7812 20.9062C50.8125 18.7813 48.4844 17.1562 45.7969 16.0312C43.1094 14.875 40.2969 14.2969 37.3594 14.2969C34.3906 14.2969 31.6094 14.8594 29.0156 15.9844C26.4219 17.1094 24.1562 18.6406 22.2188 20.5781C20.2812 22.4844 18.75 24.75 17.625 27.375C16.5 29.9688 15.9375 32.7344 15.9375 35.6719C15.9375 38.6094 16.5 41.375 17.625 43.9688C18.75 46.5312 20.2812 48.7812 22.2188 50.7188C24.1562 52.6562 26.4219 54.1875 29.0156 55.3125C31.6094 56.4375 34.3906 57 37.3594 57C40.2969 57 43.1094 56.4375 45.7969 55.3125C48.4844 54.1562 50.8125 52.5156 52.7812 50.3906L59.9062 62.1094Z" fill="#253B52"/>
<circle cx="63" cy="34" r="10" fill="#F05454"/>
</svg>
