<svg width="28" height="50" viewBox="0 0 28 50" fill="none" xmlns="http://www.w3.org/2000/svg">
<path d="M17.4286 14.7143C17.4286 11.2857 19.1429 11.2857 20.8572 11.2857H22.9143C23.2578 11.2903 23.5987 11.2261 23.9169 11.0967C24.2351 10.9674 24.5242 10.7757 24.7671 10.5328C25.01 10.2899 25.2018 10.0008 25.3311 9.68258C25.4604 9.36435 25.5246 9.02345 25.52 8.67998V5.45713C25.5201 5.11203 25.4515 4.77037 25.3185 4.45198C25.1854 4.13358 24.9904 3.8448 24.7448 3.60238C24.4991 3.35996 24.2078 3.16875 23.8877 3.03983C23.5676 2.91092 23.2251 2.84687 22.88 2.85141L18.0115 2.78284C16.5938 2.72801 15.1812 2.98143 13.8711 3.52563C12.5609 4.06982 11.3845 4.89182 10.4229 5.93489C9.4613 6.97796 8.7375 8.21726 8.30145 9.56725C7.86539 10.9172 7.72746 12.3458 7.89717 13.7543V18.7257H5.1886C4.49752 18.7257 3.83475 19.0002 3.34608 19.4889C2.85742 19.9776 2.58289 20.6403 2.58289 21.3314V24.5543C2.58289 25.2453 2.85742 25.9081 3.34608 26.3968C3.83475 26.8855 4.49752 27.16 5.1886 27.16H7.89717V45.5714C7.89717 46.0261 8.07778 46.4621 8.39927 46.7836C8.72076 47.1051 9.1568 47.2857 9.61146 47.2857H15.8172C16.2538 47.2595 16.6638 47.0673 16.9634 46.7486C17.263 46.4299 17.4294 46.0088 17.4286 45.5714V27.16H20.4457C21.1368 27.16 21.7996 26.8855 22.2883 26.3968C22.7769 25.9081 23.0515 25.2453 23.0515 24.5543V21.3314C23.0515 20.6403 22.7769 19.9776 22.2883 19.4889C21.7996 19.0002 21.1368 18.7257 20.4457 18.7257H17.4286V14.7143Z" stroke="#CDCFD1" stroke-width="4" stroke-linecap="round" stroke-linejoin="round"/>
</svg>
