<svg width="48" height="42" viewBox="0 0 48 42" fill="none" xmlns="http://www.w3.org/2000/svg">
<path d="M13.7143 29.2286C11.2661 31.1516 8.45604 32.5624 5.45142 33.3772C5.12047 33.4973 4.83454 33.7164 4.63247 34.0047C4.4304 34.293 4.322 34.6365 4.322 34.9886C4.322 35.3407 4.4304 35.6842 4.63247 35.9725C4.83454 36.2608 5.12047 36.4799 5.45142 36.6C29.1771 46.3372 44.2628 31.2858 41.9657 14.5886L45.8057 6.63433H41.3486C35.7943 -0.18853 21.0514 0.154328 23.4857 14.6915C23.4857 14.6915 15.6 16.0972 5.51999 6.18861C5.28682 5.95841 4.99256 5.79985 4.67206 5.73171C4.35156 5.66358 4.01825 5.68872 3.71159 5.80417C3.40494 5.91961 3.1378 6.12052 2.9418 6.3831C2.74581 6.64568 2.62917 6.95893 2.6057 7.28576C1.53987 11.667 2.07326 16.2847 4.10982 20.3076C6.14639 24.3304 9.55231 27.494 13.7143 29.2286Z" stroke="#CDCFD1" stroke-width="4" stroke-linecap="round" stroke-linejoin="round"/>
</svg>
